<svg width="158" height="114" viewBox="0 0 158 114" fill="none" xmlns="http://www.w3.org/2000/svg">
<path d="M138.667 102.594C138.244 102.662 137.855 102.729 137.497 102.797C137.173 102.865 136.88 102.932 136.62 103C134.639 103 132.983 102.51 131.651 101.529C130.514 100.65 130.027 99.5169 130.19 98.1305C129.995 97.3189 129.995 93.7851 130.19 87.529V86.5652C130.19 85.314 129.914 84.5532 129.361 84.2826C129.037 84.1812 128.338 84.1305 127.267 84.1305C125.87 84.773 124.896 84.5701 124.343 83.5218C124.181 83.5218 124.067 83.2681 124.002 82.7609C123.97 82.1184 124.278 81.7633 124.928 81.6957C124.993 81.6957 125.107 81.6957 125.269 81.6957C125.431 81.6957 125.626 81.7126 125.854 81.7464C127.77 81.9155 129.004 81.6788 129.556 81.0363C129.979 80.2585 130.19 78.6522 130.19 76.2174C130.19 75.7102 130.466 75.3213 131.018 75.0508C131.115 75.0169 131.229 75 131.359 75C132.398 75.1353 132.983 75.5411 133.113 76.2174C133.502 77.0628 133.697 78.2802 133.697 79.8696C133.762 81.0194 134.347 81.628 135.451 81.6957H143.636C143.993 81.628 144.204 81.8817 144.269 82.4566C144.334 83.0314 144.123 83.3865 143.636 83.5218C143.409 83.5556 142.873 83.5894 142.028 83.6232C141.216 83.657 140.079 83.7078 138.618 83.7754C138.001 83.8092 137.432 83.8599 136.913 83.9276C136.393 83.9952 135.906 84.0628 135.451 84.1305C134.542 84.1305 133.99 84.2657 133.795 84.5363C133.6 84.8068 133.373 85.4831 133.113 86.5652C133.113 86.971 133.113 87.4783 133.113 88.087C133.145 88.6957 133.178 89.4227 133.21 90.2681C133.275 92.0266 133.291 93.6329 133.259 95.087C133.259 96.5411 133.226 97.8261 133.161 98.9421C133.161 99.5508 133.389 100.041 133.844 100.413C134.006 100.515 134.152 100.565 134.282 100.565C134.672 100.565 135.532 100.481 136.864 100.312C138.228 100.109 140.047 99.8213 142.321 99.4493C142.483 99.4155 142.629 99.3986 142.759 99.3986C142.889 99.3648 142.97 99.3479 143.003 99.3479C143.75 98.9082 144.35 98.9252 144.805 99.3986C145.195 99.872 145 100.464 144.221 101.174C143.279 101.647 141.427 102.121 138.667 102.594Z" fill="white"/>
<path d="M122.3 100.676C117.264 103.535 112.194 103.756 107.091 101.34C105.958 100.795 104.74 100.08 103.439 99.1955C101.305 97.732 100.571 95.5198 101.238 92.5588C101.639 88.2023 103.439 84.7478 106.641 82.1952C109.643 79.8809 113.161 78.8939 117.197 79.2342C118.331 78.6556 119.415 79.1491 120.449 80.7147C120.515 80.8509 120.582 80.97 120.649 81.0721C120.715 81.1742 120.782 81.2933 120.849 81.4295C122.15 82.7228 122.366 83.8119 121.499 84.6968C121.399 84.7648 121.299 84.8499 121.199 84.952C121.099 85.0201 120.982 85.0882 120.849 85.1562C120.549 85.4626 120.065 85.3264 119.398 84.7478C118.798 84.2033 118.314 83.8459 117.947 83.6757C114.812 81.0891 111.711 81.0721 108.642 83.6247C108.509 83.7608 108.359 83.897 108.192 84.0331C108.059 84.1352 107.925 84.2543 107.792 84.3905C107.258 85.2413 106.741 86.2283 106.241 87.3515C105.774 88.4406 105.324 89.6828 104.89 91.0783C104.123 93.4947 104.607 95.724 106.341 97.7661C107.675 99.3316 109.359 100.302 111.394 100.676C112.928 100.676 114.529 100.557 116.196 100.319C117.897 100.046 119.682 99.672 121.549 99.1955C122.05 98.719 122.466 98.7531 122.8 99.2976C122.933 99.5359 123 99.7571 123 99.9613C123 99.9613 122.983 100.012 122.95 100.114C122.917 100.183 122.867 100.302 122.8 100.472C122.667 100.608 122.5 100.676 122.3 100.676Z" fill="white"/>
<path d="M94.4769 100.812C91.5495 102.23 88.356 102.379 84.8963 101.257C84.0979 101.027 82.6342 100.433 80.5052 99.4769C77.7441 97.6303 76.2472 95.1738 76.0143 92.1072C75.9478 90.7223 76.1141 89.4363 76.5133 88.2492C77.5778 83.9296 80.2225 81.0774 84.4472 79.6925C84.9795 79.5276 85.5284 79.3957 86.0939 79.2968C86.6594 79.1649 87.2249 79.066 87.7904 79H91.1836C94.244 79 96.3564 79.676 97.5207 81.0279C98.3524 82.1161 99.1008 84.078 99.7662 86.9138C100.265 87.8371 99.9658 88.579 98.868 89.1395C98.5686 89.2714 98.2193 89.4198 97.8201 89.5847C97.1548 89.5847 95.0424 89.7825 91.483 90.1782C89.1876 90.409 87.2915 90.409 85.7945 90.1782C83.5989 90.1782 81.8358 90.409 80.5052 90.8707C79.9064 93.1788 80.2391 95.1078 81.5032 96.6576C81.7693 96.9544 82.0853 97.2347 82.4513 97.4984C84.414 98.9823 86.0274 99.8066 87.2915 99.9715C88.3227 100.07 89.3872 99.9055 90.485 99.4769C92.1815 98.9163 93.5621 98.4877 94.6266 98.1909C95.7244 97.8612 96.5061 97.6303 96.9718 97.4984C97.3045 97.1357 97.7037 97.1192 98.1694 97.449C98.8015 97.8447 98.7682 98.4217 98.0696 99.1801C98.0031 99.279 97.9199 99.378 97.8201 99.4769C97.554 99.7407 96.8388 100.037 95.6745 100.367C95.242 100.499 94.8428 100.647 94.4769 100.812ZM82.2517 87.8536C82.7174 88.1173 83.233 88.2492 83.7985 88.2492C84.9296 88.2492 88.4558 88.0514 94.3771 87.6557C94.6432 87.6227 94.8927 87.6062 95.1256 87.6062C95.3584 87.6062 95.5747 87.5898 95.7743 87.5568C96.8388 87.4908 97.1714 86.6995 96.7722 85.1827C96.373 83.7977 95.6911 82.7261 94.7264 81.9677C94.3937 81.7369 94.0943 81.6215 93.8282 81.6215H91.1836C87.0586 80.962 84.1312 81.9347 82.4014 84.5397C82.1685 84.8694 81.9689 85.2156 81.8026 85.5783C81.3036 86.5676 81.4533 87.326 82.2517 87.8536Z" fill="white"/>
<path d="M72.1682 73.0781C71.6962 73.1461 71.2714 73.061 70.8939 72.8229C70.3904 72.8229 69.8398 72.4486 69.2419 71.7C68.8644 71.2236 68.6441 70.7473 68.5812 70.2709C68.2665 69.6244 68.4868 68.9439 69.2419 68.2294L69.7139 67.719C70.2803 67.1065 71.1299 66.8853 72.2626 67.0555C72.5143 67.0895 72.7188 67.1235 72.8762 67.1576C73.0335 67.1576 73.1594 67.1576 73.2537 67.1576C74.3865 67.77 74.9686 68.6037 75.0001 69.6585C75.0001 70.4751 74.6225 71.2917 73.8673 72.1083L73.8201 72.1594C73.3167 72.4316 72.9234 72.6527 72.6402 72.8229C72.3885 72.959 72.2311 73.044 72.1682 73.0781ZM72.4514 108.55C71.5389 111.987 69.7454 113.433 67.0709 112.888C66.1898 112.684 65.2459 112.276 64.239 111.663C64.1131 111.561 63.2636 111.136 61.6903 110.387C60.3688 109.775 59.472 108.941 59.0001 107.887C59.3462 106.287 60.1485 105.675 61.4071 106.049C61.9106 106.219 62.2724 106.423 62.4927 106.662C62.5556 106.73 62.6343 106.815 62.7287 106.917C62.8231 107.019 62.9175 107.155 63.0119 107.325C63.3894 107.87 63.7985 108.278 64.239 108.55C68.2036 110.966 70.3432 109.911 70.6579 105.386C70.6893 105.181 70.7051 104.977 70.7051 104.773C70.7051 104.569 70.7051 104.348 70.7051 104.11C71.2714 97.1003 71.2714 90.125 70.7051 83.1837C69.5409 82.7754 68.1721 82.5713 66.5989 82.5713C65.9066 82.5713 65.5605 82.2991 65.5605 81.7547C65.6235 81.0741 66.0325 80.5808 66.7877 80.2745C67.0709 80.1384 67.4012 80.0704 67.7788 80.0704C68.6913 79.9683 69.7769 79.8152 71.0355 79.611C72.5143 79.3728 73.4111 79.3899 73.7257 79.6621C74.0404 79.9683 74.1977 81.1592 74.1977 83.2348V85.7357C74.1977 86.178 74.1977 86.7565 74.1977 87.471C74.1977 88.1515 74.2134 88.9341 74.2449 89.8188C74.3078 92.9151 74.2764 95.6202 74.1505 97.934C74.0246 100.214 73.8359 102.085 73.5841 103.548C73.4583 104.399 73.2695 105.215 73.0178 105.998C72.9863 106.815 72.7975 107.665 72.4514 108.55Z" fill="white"/>
<path d="M59.75 102.096C57.5559 103.17 54.9961 103.287 52.0706 102.448C49.411 101.643 47.3499 100.25 45.8872 98.2708C45.0228 95.7543 44.7901 93.6237 45.189 91.8789V88.0539C45.7542 84.6315 47.5161 82.0143 50.4749 80.2025C50.8405 79.9676 51.2229 79.7663 51.6218 79.5985C52.0207 79.3972 52.4196 79.2294 52.8186 79.0952C56.8411 78.5919 60.631 80.085 64.1881 83.5745C66.4487 86.1581 67.3463 89.1947 66.8809 92.6842C66.4155 96.1066 64.8364 98.7909 62.1436 100.737C61.4122 101.274 60.6143 101.727 59.75 102.096ZM53.417 100.183C56.5752 101.089 59.1017 100.536 60.9966 98.5225C61.4288 98.0527 61.7945 97.5326 62.0937 96.9622C62.4261 96.3918 62.6921 95.7711 62.8916 95.1C63.3237 94.2277 63.5398 92.9359 63.5398 91.2246C63.5398 89.0437 63.3237 87.3493 62.8916 86.1413C62.5591 84.6315 61.595 83.39 59.9993 82.417C58.7693 81.6452 57.6224 81.3936 56.5585 81.662C53.5001 82.5344 51.4057 83.8094 50.2754 85.4871C48.3472 88.7753 47.7156 92.399 48.3805 96.3583C48.447 97.9017 49.2947 98.9586 50.9237 99.529C51.1564 99.529 51.5719 99.6465 52.1703 99.8814C52.8352 100.083 53.2507 100.183 53.417 100.183Z" fill="white"/>
<path d="M35.2488 101.658C32.0979 102.16 28.35 102.109 24.005 101.508C24.2372 100.772 24.7513 100.17 25.5473 99.7017C25.8458 99.5345 26.0614 99.384 26.1941 99.2502C26.7579 98.6148 27.1228 97.8791 27.2886 97.0431C27.2886 95.9395 27.3384 94.2674 27.4379 92.0268C27.6037 87.5457 27.554 84.1848 27.2886 81.9442C27.0233 81.7435 26.2273 81.8271 24.9006 82.195C23.5739 82.5294 22.5125 82.5963 21.7165 82.3956C20.9205 82.3288 20.7878 81.9275 21.3185 81.1917C22.0813 80.4226 23.6236 79.8206 25.9453 79.3859C26.3102 79.319 26.6584 79.2689 26.9901 79.2354C27.3218 79.202 27.6203 79.1852 27.8856 79.1852C29.0133 78.7839 29.7928 79.0348 30.2239 79.9377C30.2903 80.0715 30.3566 80.2219 30.4229 80.3891C30.4893 80.5229 30.5556 80.6734 30.622 80.8406C30.7878 81.0078 30.9536 81.2921 31.1195 81.6934C31.3185 82.0612 31.4677 82.3956 31.5672 82.6966L31.7165 83.0979C34.4694 80.8573 37.6037 79.737 41.1195 79.737C42.4793 79.9042 43.6402 80.7236 44.6021 82.195C44.7347 82.3956 44.8176 82.5796 44.8508 82.7468C44.9171 82.8805 44.9669 82.9976 45.0001 83.0979C44.2372 84.4021 43.1261 84.5861 41.6667 83.6497C41.3351 83.5494 40.8873 83.3487 40.3234 83.0478C39.0631 82.4458 38.0681 82.2619 37.3384 82.496C37.3052 82.5294 37.272 82.5461 37.2389 82.5461C34.7845 83.8169 33.1261 85.1044 32.2637 86.4086C31.1692 87.5457 30.622 88.8499 30.622 90.3213V94.7858C30.622 95.0199 30.622 95.2874 30.622 95.5884C30.622 95.8893 30.6054 96.2238 30.5722 96.5916C30.4727 97.6283 30.5722 98.2804 30.8707 98.5479C31.3019 98.8155 32.5125 99.0496 34.5026 99.2502C35.0996 99.3171 35.5142 99.5846 35.7463 100.053C35.9785 100.554 35.8127 101.09 35.2488 101.658Z" fill="white"/>
<path d="M10.1473 111.702C10.6033 111.804 10.9779 112.008 11.271 112.315C11.5968 112.655 11.7596 113.217 11.7596 114H4.82182C3.19323 114 2.34636 113.711 2.28122 113.132C2.28122 112.621 2.72094 111.6 3.60038 110.067C4.02381 109.591 4.23553 108.484 4.23553 106.748V84.3263C4.23553 83.3048 3.81209 82.6068 2.96523 82.2323C2.90008 82.1982 2.81865 82.1642 2.72094 82.1301C2.65579 82.0961 2.55808 82.062 2.42779 82.028C2.10207 81.8577 1.85779 81.7556 1.69493 81.7215C1.17378 81.7215 0.945775 81.4321 1.01092 80.8533C1.04349 80.4106 1.27149 80.0361 1.69493 79.7297C3.64924 79.0487 5.11497 78.8444 6.09212 79.1168C6.5807 79.287 7.00413 79.4913 7.36242 79.7297C8.86073 80.2404 10.473 80.3085 12.1993 79.934C12.3622 79.8999 12.5088 79.8659 12.6391 79.8318C12.7693 79.7978 12.8996 79.7637 13.0299 79.7297C16.5151 79.1508 19.6583 80.683 22.4595 84.3263C24.1532 86.7097 25.0001 89.5698 25.0001 92.9066C25.0001 93.0769 24.9512 93.3833 24.8535 93.826C24.7558 94.2686 24.6255 94.8474 24.4626 95.5625C24.4301 95.6987 24.3975 95.8178 24.3649 95.92C24.3649 96.0221 24.3649 96.1073 24.3649 96.1754C21.8569 98.3545 20.4074 99.5632 20.0166 99.8016C17.8343 101.368 15.7171 102.151 13.6651 102.151C12.8182 101.708 11.5479 101.487 9.85417 101.487C8.81187 101.487 8.193 101.623 7.99757 101.896C7.93243 102.032 7.83471 102.219 7.70443 102.457C7.60671 102.73 7.49271 103.07 7.36242 103.479V106.084C7.32985 107.514 7.46014 108.688 7.75328 109.608C8.04643 110.425 8.40472 110.953 8.82815 111.191C9.05616 111.293 9.26787 111.378 9.4633 111.446C9.69131 111.549 9.91931 111.634 10.1473 111.702ZM8.63272 96.8904C10.4242 99.2738 12.7856 100.057 15.7171 99.2398C16.1405 99.1036 16.5477 98.9674 16.9385 98.8312C17.3294 98.6609 17.704 98.4566 18.0623 98.2183C18.9417 97.6054 19.642 96.7201 20.1631 95.5625C20.7169 94.3707 21.0752 93.0769 21.238 91.6809C21.4009 90.2849 21.3683 88.9229 21.1403 87.595C20.9123 86.2671 20.4726 85.1435 19.8211 84.2241C19.756 84.122 19.6746 84.0198 19.5769 83.9177C19.4791 83.8155 19.3977 83.7304 19.3326 83.6623L18.6974 83.0494C16.5151 81.7215 14.2676 81.6024 11.955 82.6919C9.87045 83.7134 8.58386 85.3818 8.09529 87.6971C8.06272 87.7993 8.04643 87.9014 8.04643 88.0036C8.04643 88.1057 8.03014 88.2079 7.99757 88.31C7.99757 88.4462 7.98129 88.6505 7.94872 88.9229C7.94872 89.1953 7.93243 89.5528 7.89986 89.9954C7.67185 92.9918 7.70443 94.8304 7.99757 95.5114C8.06272 96.3967 8.27443 96.8563 8.63272 96.8904Z" fill="white"/>
<path d="M147.496 66.4C146.163 67.8 144.596 68.4667 142.796 68.4C141.929 68.3334 140.929 68.2334 139.796 68.1C138.729 68.0334 137.496 67.9 136.096 67.7C133.096 67.3 130.896 67.1 129.496 67.1C129.029 67.1 128.429 67.1 127.696 67.1C127.029 67.1 126.229 67.0667 125.296 67C123.163 66.9334 121.329 66.9 119.796 66.9C118.329 66.9 117.163 66.9667 116.296 67.1C115.096 67.1667 114.163 66.5 113.496 65.1C112.763 63.3667 113.229 62.2667 114.896 61.8C119.163 61.8 121.696 60.4 122.496 57.6C122.763 56.6 122.896 55.3 122.896 53.7C122.896 52.5 122.796 50.8 122.596 48.6C122.196 44.5334 122.296 41.3667 122.896 39.1C122.896 34.0334 121.296 30.7667 118.096 29.3C117.629 29.1 117.096 28.9334 116.496 28.8C115.963 28.6 115.429 28.4334 114.896 28.3C113.496 28.3 112.629 27.8334 112.296 26.9C112.229 26.7 112.196 26.3334 112.196 25.8C113.129 24.8 114.496 24.3 116.296 24.3H118.796C121.729 24.3 123.429 23.4 123.896 21.6C124.096 20.8667 124.196 20 124.196 19V16.3C124.196 10.4334 126.696 6.30002 131.696 3.90002C132.029 3.76669 132.329 3.63335 132.596 3.50002C132.929 3.36669 133.229 3.23335 133.496 3.10002C142.429 -0.499975 149.529 0.333355 154.796 5.60002C155.529 6.46669 155.329 7.46669 154.196 8.60002C152.863 9.93335 151.229 9.76669 149.296 8.10002C149.096 7.90002 148.896 7.70002 148.696 7.50002C148.496 7.30002 148.329 7.10002 148.196 6.90002C146.196 5.63335 143.663 5.13335 140.596 5.40002C139.929 5.46669 139.329 5.53335 138.796 5.60002C138.263 5.60002 137.829 5.60002 137.496 5.60002C135.829 6.46669 134.096 8.56669 132.296 11.9C132.163 12.1667 132.096 12.3 132.096 12.3V20.4C132.163 22.8667 133.529 24.1667 136.196 24.3C136.929 24.3 137.829 24.3 138.896 24.3C140.029 24.3 141.296 24.3334 142.696 24.4C145.163 24.4667 147.263 24.5 148.996 24.5C150.796 24.5 152.263 24.4334 153.396 24.3C154.929 24.1 156.296 24.8 157.496 26.4C158.163 27.4 158.163 28.0334 157.496 28.3H146.796C139.863 28.3 135.696 28.6334 134.296 29.3C132.363 30.1 131.263 32.1334 130.996 35.4C130.929 36.1334 130.863 37.2667 130.796 38.8C130.796 40.2667 130.796 42.1334 130.796 44.4C129.929 47 129.496 51 129.496 56.4C129.496 59.0667 130.329 60.7 131.996 61.3C133.129 61.6334 134.529 61.8 136.196 61.8C136.529 61.8 137.363 61.7334 138.696 61.6C140.096 61.4 142.029 61.1334 144.496 60.8C146.029 60.6 147.263 60.5 148.196 60.5L149.496 61.8C149.496 63.3334 148.829 64.8667 147.496 66.4Z" fill="white"/>
<path d="M109.749 66.5001C108.816 66.5667 107.416 66.5334 105.549 66.4001C103.749 66.3334 101.516 66.1334 98.8489 65.8001C94.7156 65.4001 91.3489 65.6334 88.7489 66.5001C87.4822 66.5001 86.6489 65.8667 86.2489 64.6001C85.7822 63.2001 86.4489 62.2334 88.2489 61.7001C88.5822 61.6334 88.8822 61.6001 89.1489 61.6001C89.4822 61.5334 89.7822 61.5001 90.0489 61.5001C93.9156 60.5001 95.9822 57.7001 96.2489 53.1001V14.1001C96.2489 10.9001 95.7156 9.06672 94.6489 8.60005C93.7822 8.33339 91.8156 8.50005 88.7489 9.10005C86.6156 10.2334 84.9822 9.90006 83.8489 8.10006C83.1822 6.90005 83.1489 6.00005 83.7489 5.40005C84.1489 5.40005 85.8822 5.03339 88.9489 4.30006C89.2156 4.23339 89.4156 4.20005 89.5489 4.20005C89.7489 4.13338 89.9156 4.10005 90.0489 4.10005C90.5822 3.96672 91.2156 3.83339 91.9489 3.70005C92.6822 3.56672 93.5156 3.40005 94.4489 3.20005C98.3822 2.26672 100.782 2.06672 101.649 2.60005C102.916 3.33338 103.582 5.76672 103.649 9.90005V16.6001C103.649 28.2001 103.249 37.3667 102.449 44.1001V51.5001C102.449 55.4334 102.882 57.8334 103.749 58.7001C104.549 59.3667 106.416 59.9667 109.349 60.5001C109.749 60.5667 110.082 60.7001 110.349 60.9001C110.682 61.0334 110.982 61.2001 111.249 61.4001C111.382 61.3334 111.549 61.6334 111.749 62.3001C112.016 62.9001 112.149 63.4667 112.149 64.0001C112.149 64.4667 111.916 65.0001 111.449 65.6001C111.049 66.2001 110.482 66.5001 109.749 66.5001Z" fill="white"/>
<path d="M7.90001 66.3C7.23335 66.9667 5.70001 67.0667 3.30001 66.6C3.03335 66.5334 2.80001 66.5 2.60001 66.5C2.40001 66.4334 2.23335 66.4 2.10001 66.4C1.16668 65.3334 0.700012 63.9 0.700012 62.1C0.700012 61.2334 0.900012 60.7667 1.30001 60.7C1.43335 60.6334 1.70001 60.6 2.10001 60.6C6.03335 60.4667 7.93335 58.0334 7.80001 53.3C7.80001 37.2334 8.20001 25.6667 9.00001 18.6C8.93335 14.6 6.83335 11.0334 2.70001 7.90003C2.56668 7.7667 2.40001 7.63336 2.20001 7.50003C2.00001 7.3667 1.83335 7.2667 1.70001 7.20003C0.700012 7.33336 0.366679 6.90003 0.700012 5.90003C0.833346 5.63337 0.966679 5.3667 1.10001 5.10003C1.23335 4.83337 1.43335 4.5667 1.70001 4.30003C1.83335 3.3667 2.80001 2.90003 4.60001 2.90003C5.73335 2.83337 8.80001 2.8667 13.8 3.00003C18.8 3.0667 25.7333 3.1667 34.6 3.30003C40.3333 3.43336 45.2 3.43336 49.2 3.30003C52.7333 3.1667 54.9 3.9667 55.7 5.70003C56.1667 6.70003 56.4 8.2667 56.4 10.4C56.4 11 56.4 11.7 56.4 12.5C56.4 13.3 56.4333 14.2334 56.5 15.3V17.6C56.5 21.4 55.6333 23.4667 53.9 23.8C53.3 23.8 52.7333 23.6667 52.2 23.4C50.8 23.4667 50.2 22.6667 50.4 21C50.6 19.8667 50.7 19.2667 50.7 19.2C49.5 14.6667 47 11.6334 43.2 10.1C42.7333 9.9667 42.2667 9.83336 41.8 9.70003C41.4 9.50003 40.9667 9.3667 40.5 9.30003C38.0333 8.50003 33.7 8.10003 27.5 8.10003H24.4C21.1333 7.90003 18.7667 8.4667 17.3 9.80003C17.0333 10.0667 16.8 10.3 16.6 10.5C16.4 10.7 16.2333 10.9334 16.1 11.2C14.7667 16 14.8 21.3334 16.2 27.2C17.7333 29.7334 20.7 31.0334 25.1 31.1H26.4C28.2667 32.1 29.9333 31.1667 31.4 28.3C31.5333 28.1 31.6333 27.9 31.7 27.7C31.8333 27.4334 31.9333 27.1667 32 26.9C32 25.8334 32.6333 25.3334 33.9 25.4C35.2333 25.8667 36.0667 26.7667 36.4 28.1C37.4 31.1 37.9 35.4334 37.9 41.1C37.5 41.5 36.9667 42.5667 36.3 44.3C35.9 45.0334 35.5 45.4667 35.1 45.6C33.3 46.4667 31.9667 45.9667 31.1 44.1C30.9 43.5667 30.8 43.1 30.8 42.7C30.0667 39.3667 28.1333 37.8 25 38C24.7333 38 24.3333 38.0334 23.8 38.1C23.3333 38.1667 22.7667 38.2667 22.1 38.4C21.4333 38.4667 20.8667 38.5334 20.4 38.6C19.9333 38.6667 19.5333 38.7334 19.2 38.8C16.4 38.8 15 40.1334 15 42.8V43C14.4 50.3334 14.3667 54.9 14.9 56.7C15.6333 58.7 17.4 60 20.2 60.6C21.8 60.8667 24.8667 61.1667 29.4 61.5C30.4667 61.5 33.8333 61.4 39.5 61.2C44.8334 62.2667 48.5667 61.8 50.7 59.8C52.2333 58.2667 53.2667 55.7667 53.8 52.3H55.1C55.5667 52.3 55.9333 52.4334 56.2 52.7C56.4667 52.9 56.6 53.1334 56.6 53.4L56.7 53.8C57.7 54.6667 58.2 56.5334 58.2 59.4C58.2 62.8 56.7333 65.0667 53.8 66.2C52.8667 66.5334 51.9333 66.7334 51 66.8C49.7333 66.8 45.8333 66.5 39.3 65.9C38.4333 65.8334 37.6667 65.8 37 65.8C36.3333 65.7334 35.7333 65.7 35.2 65.7C34.9333 65.7 34.4333 65.7 33.7 65.7C32.9667 65.7 31.9667 65.6667 30.7 65.6C18.3 65.2667 10.7 65.5 7.90001 66.3Z" fill="white"/>
<path d="M58.1034 26.806L71.2014 3.99999L85.1683 26.806L71.2014 50.481L58.1034 26.806Z" fill="url(#paint0_diamond_1_346)"/>
<path d="M71.2154 49.4733L58.6774 26.8106L71.2152 4.97991L84.5849 26.8108L71.2154 49.4733Z" stroke="#7987F4" stroke-opacity="0.06"/>
<path d="M58.1034 34.806L71.2014 12L85.1683 34.806L71.2014 58.481L58.1034 34.806Z" fill="url(#paint1_diamond_1_346)"/>
<path d="M71.2154 57.4733L58.6774 34.8106L71.2152 12.9799L84.5849 34.8108L71.2154 57.4733Z" stroke="#7987F4" stroke-opacity="0.06"/>
<path d="M58.1034 34.806L71.2014 12L85.1683 34.806L71.2014 58.481L58.1034 34.806Z" fill="url(#paint2_diamond_1_346)"/>
<path d="M71.2154 57.4733L58.6774 34.8106L71.2152 12.9799L84.5849 34.8108L71.2154 57.4733Z" stroke="#7987F4" stroke-opacity="0.06"/>
<defs>
<radialGradient id="paint0_diamond_1_346" cx="0" cy="0" r="1" gradientUnits="userSpaceOnUse" gradientTransform="translate(71.5 27) rotate(90) scale(24 18.1696)">
<stop offset="0.19923" stop-color="#C73FDD" stop-opacity="0.75"/>
<stop offset="0.427083" stop-color="#84E9E3" stop-opacity="0.53"/>
<stop offset="0.953125" stop-color="#3349F4" stop-opacity="0.7"/>
</radialGradient>
<radialGradient id="paint1_diamond_1_346" cx="0" cy="0" r="1" gradientUnits="userSpaceOnUse" gradientTransform="translate(71.5 35) rotate(90) scale(24 18.1696)">
<stop offset="0.19923" stop-color="#C73FDD" stop-opacity="0.75"/>
<stop offset="0.427083" stop-color="#84E9E3" stop-opacity="0.53"/>
<stop offset="0.953125" stop-color="#3349F4" stop-opacity="0.7"/>
</radialGradient>
<radialGradient id="paint2_diamond_1_346" cx="0" cy="0" r="1" gradientUnits="userSpaceOnUse" gradientTransform="translate(71.5 35) rotate(90) scale(24 18.1696)">
<stop offset="0.19923" stop-color="#C73FDD" stop-opacity="0.75"/>
<stop offset="0.427083" stop-color="#84E9E3" stop-opacity="0.53"/>
<stop offset="0.953125" stop-color="#3349F4" stop-opacity="0.7"/>
</radialGradient>
</defs>
</svg>
