<svg width="820" height="862" viewBox="0 0 820 862" fill="none" xmlns="http://www.w3.org/2000/svg">
<path d="M533.333 3.20002C517.333 8.40002 508.533 14.5334 480.4 39.8667C464.266 54.5334 454.933 61.4667 438.8 71.0667C425.333 78.9334 421.333 82.2667 421.333 85.3334C421.333 88.8 424.266 87.6 437.866 78.6667C445.066 73.8667 451.733 70 452.666 70C453.6 70 454.666 72.4 455.066 75.4667C456.4 85.3334 458.4 84.4 459.866 73.4667C460.4 69.3334 461.466 65.3334 462.266 64.5334C462.933 63.8667 468.933 62.4 475.466 61.2C502.133 56.5334 525.2 44.9334 541.066 28.2667C551.333 17.3334 553.466 9.06669 547.6 3.60002C543.866 0.133357 542.933 0.133357 533.333 3.20002Z" fill="#9E8FA7"/>
<path d="M292.933 72.6666C279.867 77.7333 264.133 92.1333 240.667 120C233.333 128.8 216.933 146.8 204.133 160C177.6 187.467 164 203.867 164 208.267C164 213.067 166.933 210.8 180.133 195.733C196.8 176.667 217.867 156 226 150.533C229.733 148.133 237.067 144.533 242.4 142.8C264.133 135.333 277.867 126.133 292.4 109.067C304.667 94.6666 310.933 79.3333 306.933 73.0666C305.2 70.2666 299.467 69.9999 292.933 72.6666Z" fill="#9E8FA7"/>
<path d="M148.133 96.6667C145.067 98.9333 140.8 103.6 138.533 106.933C130.533 119.733 122.133 146 118.133 171.333C114.133 196.667 113.333 199.867 108.533 212.667C89.7332 263.2 63.9999 366 69.4665 369.333C71.5999 370.667 74.3999 364 75.9999 354C80.1332 328.533 96.9332 268 111.733 225.2C120.8 198.8 121.333 197.867 135.733 175.867C160.267 138.133 165.333 126.8 165.333 109.333C165.333 93.2 159.2 88.6667 148.133 96.6667Z" fill="#9E8FA7"/>
<path d="M796 93.6C786 95.3333 771.867 100.933 740 116C716.267 127.2 709.867 129.733 688.667 136C682.133 138 671.467 142 664.933 144.933L653.2 150.133L636.267 143.6C586.933 124.267 548.267 115.733 495.2 112.667C459.067 110.533 420.533 113.467 385.333 120.8C312.933 136.133 242.667 172.8 195.333 220C139.2 275.733 106.4 353.867 100.533 445.067C99.9999 452.933 99.1999 458.933 98.6665 458.4C98.1332 457.867 95.7332 451.333 93.3332 444C86.5332 422.933 80.6665 411.6 75.3332 409.067C71.1999 407.067 70.5332 407.067 67.4665 409.067C53.0665 418.533 65.3332 474.4 89.5999 509.6C93.1999 514.8 97.0665 519.467 97.9999 519.867C101.067 521.067 103.467 527.067 110.533 551.733C114.267 564.8 119.467 580.933 122.133 587.733C128.933 604.8 148.533 645.2 158.4 662.267C162.933 670.133 166.667 676.8 166.667 677.333C166.667 677.733 161.333 675.333 154.667 672C133.867 661.6 113.733 654.267 99.5999 652C96.1332 651.467 91.8665 648.933 85.5999 643.467C60.7999 622.133 33.3332 605.867 14.2665 601.2C5.73319 599.067 5.06652 599.067 2.66652 601.333C-0.533478 604.267 -0.800145 611.2 1.86652 616.533C4.93319 622.4 20.3999 636 30.1332 641.467C43.1999 648.8 54.7999 653.2 73.1999 657.867C91.4665 662.533 91.5999 662.533 104.933 671.6C110.267 675.067 115.333 678 116.267 678C117.067 678 114.133 674.267 109.6 669.867C100.533 660.933 98.6665 655.733 104.933 657.333C110 658.533 115.867 662.533 130.667 674.8C157.467 697.067 202.933 729.2 210.533 731.333C213.333 732.133 221.6 737.867 230.667 745.467C257.333 767.6 294.133 790.4 326.4 804.667C333.867 808 340 811.067 340 811.6C340 814.8 313.067 826.4 293.6 831.467C276 836 265.867 836.4 246.933 833.2C238.4 831.733 225.467 830.933 208.667 830.8C186 830.667 182.4 831.067 173.733 833.733C166.933 835.867 163.2 837.867 160.8 840.8C154.667 848 158.4 853.067 173.333 858.267C192.133 864.667 231.867 859.733 254.267 848.133C256.533 847.067 265.867 844.8 274.933 843.2C295.867 839.6 316.667 832.8 335.867 823.2L351.067 815.6L365.6 820.133C430.933 840.533 490.667 844.533 552.533 832.667C577.6 827.733 595.467 821.333 603.067 814.267C607.333 810.267 607.6 806.667 604.133 802C600.667 797.733 596.667 798 575.333 803.867C556.267 809.067 530.533 814 522.133 814C517.733 814 515.867 813.067 511.333 808.8C508.4 806 500.667 800 494 795.6C470.667 780.133 449.2 771.467 427.867 768.667C414.267 767.067 397.333 766.933 397.333 768.533C397.333 770.267 417.6 783.867 443.333 799.2C455.867 806.667 466.667 813.467 467.333 814.267C469.333 816.4 446.933 814.533 424 810.533C386.933 804.267 361.6 796 326.667 778.533C285.2 757.733 256.533 737.333 225.867 706.8C205.2 686 191.6 669.2 178 647.333C154.533 609.733 136.267 563.2 129.333 524C122 482.4 122.133 431.467 129.467 392C136 356.933 156 308.8 175.733 280.667C192.133 257.2 219.2 228.133 238 213.867C249.6 204.933 269.333 192.267 270.267 193.067C270.667 193.6 265.6 200.4 259.067 208.267C232.267 240.533 229.467 245.733 220.667 277.067C218.667 284.133 218 284.933 212.133 287.867C190 299.067 166 338.4 158 376.667C155.467 388.4 155.467 390 157.867 390C160.533 390 189.2 359.733 199.333 346.267C215.6 324.667 222.667 307.6 230 273.733C231.2 268.133 233.2 262.133 234.667 260.4C236 258.667 241.867 254.667 247.867 251.467C260.8 244.4 277.333 231.467 285.467 221.733C298.667 206.267 304.4 195.467 307.867 180C310 170.933 310.133 170.533 316.133 167.6C335.467 158 379.733 145.333 410.133 140.667C430 137.733 470.4 134.933 486 135.6L496.667 136L476.533 157.333C446.667 189.333 425.333 214.4 426.8 216C427.2 216.267 432.533 213.067 438.933 208.8C447.467 202.933 453.867 199.867 463.867 196.667C487.733 189.067 511.733 170.933 526.133 149.867C530.667 143.2 533.333 140.667 535.333 140.667C539.067 140.667 566.933 146.267 581.333 150C597.467 154.133 599.333 155.333 602.667 164.267C607.6 177.6 608.267 183.733 606 199.2C602.267 226.133 599.867 295.2 602.533 304.533C603.333 307.733 603.467 307.6 608.533 301.867C620.933 287.467 629.333 264.533 630.267 241.867C631.2 223.467 628.8 210.8 622.267 197.733C617.733 188.667 608 160.533 608.8 159.067C609.867 157.333 622 162.4 648.267 175.6C677.867 190.4 677.6 190.133 690.667 212.4C710.933 246.533 726.667 268.133 745.6 288L754.533 297.333L754.667 288C754.667 275.467 750.667 257.067 744.933 243.6C742.4 237.6 740.533 232.667 741.067 232.667C743.333 232.667 757.867 245.333 771.6 259.467C788.667 276.933 793.6 280.133 799.6 277.867C808.933 274.4 810.4 267.733 804.267 257.867C790.8 236.933 724.8 187.333 678.667 163.867C670.267 159.467 663.067 155.867 662.667 155.6C661.333 154.667 667.467 151.2 677.333 147.467C695.733 140.267 707.467 137.867 729.6 136.667C776.533 134 803.6 126.8 815.333 113.733C819.333 109.333 820 107.733 820 102C820 95.6 819.867 95.4666 815.067 94.1333C810 92.6666 802.533 92.5333 796 93.6Z" fill="#9E8FA7"/>
<path d="M14.1332 228.533C10.7999 232.267 10.1332 243.733 12.5332 254.933C16.2666 273.067 28.9332 294.8 47.8666 315.867C55.9999 324.933 57.7332 327.733 60.1332 335.867C61.5999 341.067 63.3332 346.8 63.9999 348.667L65.0666 352L65.9999 348.4C66.5332 346.267 65.8666 338.267 64.1332 329.067C62.6666 320.4 60.5332 307.6 59.3332 300.667C54.1332 269.733 39.1999 238.4 25.4666 229.067C19.9999 225.333 17.0666 225.2 14.1332 228.533Z" fill="#9E8FA7"/>
<path d="M476.4 276.667C470.667 278 466.267 280.933 462.133 286.4L458.667 290.933L458.8 372.133C458.8 416.8 459.333 465.867 459.867 481.333C460.8 506.667 461.333 510.4 464.533 520C475.6 552.667 496.933 574 530 585.733C541.333 589.6 570.8 591.467 579.2 588.667C585.2 586.8 591.467 581.6 594 576.533C598 569.067 595.867 556.8 589.467 549.467C585.333 544.667 580.267 543.333 561.6 542.133C541.6 540.8 535.067 538.933 526 531.733C519.333 526.533 511.2 514 507.733 503.467C504.8 494.8 504.8 493.467 504 392C503.333 296.8 503.2 288.933 500.933 285.6C496.667 279.067 484.8 274.8 476.4 276.667Z" fill="#9E8FA7"/>
<path d="M728 320.8C699.733 328 676.267 346.933 663.333 372.8C656 387.2 654.4 395.067 653.467 420L652.667 442.533L648 444C645.467 444.8 641.867 446.133 640.267 447.067C633.467 450.933 630.133 466.4 633.333 478.267C634.933 484 642.8 491.333 647.333 491.333C654.8 491.333 654.667 490.933 654.667 518.533C654.8 556.667 656.533 578.933 659.6 583.2C663.067 588 672.8 592.667 679.333 592.667C685.6 592.667 693.867 588.267 697.867 582.933C700.533 579.333 700.667 577.067 701.467 534.267C702 509.6 702.4 489.2 702.533 488.933C702.533 488.8 722.667 488.667 747.067 488.533C771.333 488.533 794.267 488 797.733 487.467C805.067 486.267 810 483.067 814.4 476.533C820.667 467.6 815.467 452 804.4 446.533C799.733 444.267 795.333 444 749.733 443.6L700 443.067V431.6C700.133 415.2 702.267 393.867 704.267 389.2C707.2 382.4 711.867 377.067 719.6 371.733L726.933 366.667L753.2 365.867C781.333 365.067 784.933 364.267 790.4 357.333C794 352.8 795.2 347.2 794 339.6C792.8 331.067 784.8 323.2 774.8 320.133C764.4 317.067 740.933 317.333 728 320.8Z" fill="#9E8FA7"/>
<path d="M299.867 378.133C265.333 382.533 230.667 408.533 214 442.4C198.533 473.733 198.533 505.2 213.867 537.2C228.533 568.133 254.4 589.6 286.667 598.133C296.4 600.667 320.4 599.867 332.533 596.8C345.467 593.333 368.133 582.8 379.2 574.8C389.6 567.333 401.467 554.933 405.333 547.467C410.667 536.8 408.133 523.333 399.467 518.133C388.267 511.467 381.867 513.2 362.4 528.667C337.467 548.533 322.8 554.8 302.8 553.733C294.267 553.333 289.867 552.4 285.333 550L279.467 546.933L284 543.067C286.533 540.933 313.867 518.8 344.667 494C375.467 469.333 401.867 447.733 403.333 446C407.2 441.733 406.933 426.267 402.933 418.4C396 404.933 380.933 393.733 358.267 384.8C339.467 377.467 321.067 375.467 299.867 378.133ZM340.4 426C344.533 427.6 348 429.6 348 430.533C348 431.467 341.467 436.933 333.333 442.667C325.333 448.267 303.867 464.933 285.733 479.467C267.467 494 252.267 506 251.733 506C248 506 249.067 478.533 253.2 466.8C260.133 447.2 279.867 429.2 300.667 423.733C310.4 421.2 330.8 422.4 340.4 426Z" fill="#9E8FA7"/>
<path d="M756.4 597.6C751.467 598.533 749.333 603.067 749.333 612.133V620.4L743.067 621.333C733.733 622.667 732 624 732 629.467C732 632 732.667 635.333 733.467 636.933C735.067 640 742.267 643.333 747.2 643.333C751.467 643.333 751.6 644.133 752.667 667.333C753.467 687.6 755.2 692.8 762.533 697.6C768.133 701.333 774 701.467 779.733 698C787.467 693.2 791.6 679.2 787.733 670.667C786.4 667.6 781.333 665.867 781.333 668.4C781.333 670.4 775.867 675.467 774.533 674.667C773.867 674.133 773.333 666.8 773.333 658.133V642.267L778 641.467C783.867 640.267 787.2 635.6 786 630.133C785.067 625.6 782.933 623.6 777.733 622.133C774.533 621.333 773.867 620.267 772.533 613.467C770.533 603.333 768.4 599.733 763.6 598C761.467 597.333 759.6 596.8 759.467 596.8C759.333 596.933 758 597.333 756.4 597.6Z" fill="#9E8FA7"/>
<path d="M544.4 609.733C540.666 612.667 538.8 617.733 539.6 622.4C540.533 626.8 547.066 632.667 551.2 632.667C558.8 632.667 564.933 622 561.466 614.533C560.133 611.467 552.933 607.333 549.066 607.333C548.133 607.333 546 608.4 544.4 609.733Z" fill="#9E8FA7"/>
<path d="M326.4 621.867C319.867 623.2 315.2 626.533 312.533 631.6C310.533 635.467 310.4 639.733 311.2 671.333C311.733 694.667 311.6 709.2 310.667 714C309.333 721.067 309.333 721.467 312.667 724.267C316.933 728 319.067 728.133 324.8 724.533C331.067 720.667 332.133 718.133 333.333 704.4C333.867 698 334.533 692.267 334.933 692C335.333 691.6 339.067 690.4 343.2 689.333C354 686.533 360 683.067 366.267 676.267C373.733 668.133 376.933 657.6 374.933 647.733C372.4 635.6 363.067 625.2 351.867 622C346.8 620.533 333.867 620.533 326.4 621.867ZM350.133 643.467C357.333 650.933 354.533 665.067 344.667 669.867C336.8 673.733 330.667 666 330.667 652.133C330.667 645.867 331.2 644.533 334.133 642.133C339.333 638 345.333 638.533 350.133 643.467Z" fill="#9E8FA7"/>
<path d="M615.866 622.4C592.933 631.067 578.133 657.333 584 679.2C586.133 687.2 595.866 696.933 604.4 699.2C623.2 704.533 648.133 694 651.333 679.467C652.4 674.8 649.733 668.267 646.533 667.6C645.333 667.333 639.333 670.267 633.2 674C623.866 679.6 621.066 680.667 616.666 680.4C607.333 679.733 609.466 676 625.333 665.067C643.066 652.933 649.333 646.4 649.333 640.267C649.333 634.667 644.8 627.6 639.066 624.267C633.466 621.067 622 620.133 615.866 622.4ZM625.333 636.4C625.333 638.133 607.2 655.333 605.333 655.333C601.066 655.333 609.066 641.2 614.933 638.4C621.066 635.333 625.333 634.533 625.333 636.4Z" fill="#9E8FA7"/>
<path d="M393.333 626.667C392.533 628.533 391.867 643.733 391.733 660.4C391.333 693.467 391.867 696.667 398.933 700.533C402.267 702.4 402.8 702.4 406.267 699.867C411.6 695.867 412.933 692.267 414.4 678.533C416.533 659.333 424.267 645.2 430.667 648.667C432 649.467 436.133 650 439.733 650C447.333 650 447.467 649.867 448.8 635.2L449.733 626.267L444.267 625.333C435.2 623.867 421.867 625.867 416.4 629.6L411.467 632.933L408.667 629.6C406 626.267 400.4 623.333 396.533 623.333C395.467 623.333 394 624.8 393.333 626.667Z" fill="#9E8FA7"/>
<path d="M693.067 625.333C684.533 628.133 673.067 638.8 668.4 648.4C665.467 654.533 664.8 657.867 664.8 666C664.667 682.933 672.4 693.867 687.333 698C700.133 701.6 719.2 697.333 724.533 689.733C727.6 685.467 727.333 675.067 724.267 672.267C720.667 668.933 711.733 669.333 708.533 672.8C705.333 676.267 699.6 679.333 696.133 679.333C689.6 679.333 687.2 667.067 691.867 656.4C695.6 647.733 700.533 644 714 639.733C719.067 638.133 718.933 633.6 713.467 628.267C708.933 623.6 701.733 622.667 693.067 625.333Z" fill="#9E8FA7"/>
<path d="M472.4 627.333C467.466 630.267 462.4 637.733 459.866 645.333C459.066 648.267 457.2 652.133 455.866 654C452.8 658.133 451.2 664.667 453.066 664.667C453.866 664.667 455.066 663.733 455.733 662.533C456.666 660.8 457.6 662.533 459.733 669.467C463.466 681.733 469.466 690.533 477.2 695.067C482.533 698.133 484.8 698.667 494 698.667C507.066 698.667 512.133 696 519.866 685.2C532.266 667.867 530 648.4 514 634.267C506.266 627.467 498.133 624.667 486.133 624.667C479.066 624.667 475.6 625.333 472.4 627.333ZM498.133 645.867C509.866 653.067 505.866 678 493.066 678C482.266 678 477.333 657.2 485.6 646.667C488.666 642.667 492.533 642.4 498.133 645.867Z" fill="#9E8FA7"/>
<path d="M549.733 639.333C543.6 641.867 542.267 647.333 541.333 676.667C540.133 712.267 537.467 719.333 525.867 719.333C520.4 719.333 520.133 719.6 519.333 723.867C518.133 729.733 520.4 733.733 526 736.133C532.533 738.8 537.2 738.4 544.933 734.667C553.467 730.4 558.8 722.933 560.133 713.6C560.667 709.733 561.2 692.4 561.2 674.933C561.333 645.067 561.2 643.2 558.667 640.667C555.733 637.733 554.267 637.6 549.733 639.333Z" fill="#9E8FA7"/>
<path d="M94.4001 696.8C81.4668 704.267 124.933 737.2 159.467 746C165.333 747.467 176 749.333 183.333 750C201.467 751.867 204.533 752.933 215.333 760.667C227.867 769.867 231.6 771.733 235.6 770.667C237.333 770.267 238.667 769.333 238.4 768.8C237.733 766.8 211.067 749.467 197.867 742.267C191.2 738.667 180.667 732.133 174.533 727.6C153.867 712.667 129.733 699.867 116 696.8C108.4 695.067 97.3334 695.067 94.4001 696.8Z" fill="#9E8FA7"/>
</svg>
