<svg width="4126" height="4390" viewBox="0 0 4126 4390" fill="none" xmlns="http://www.w3.org/2000/svg">
<g clip-path="url(#clip0_821_79)">
<path d="M1329.31 3604.34L1883.22 3578.19C1889.83 3589.58 1898.5 3600.3 1910.87 3607.56C1947.98 3629.32 1999.38 3612.54 2025.19 3571.36L2637.54 3541.95C2643.32 3549.09 2649.1 3556.24 2656.53 3560.59C2696.1 3583.8 2748.32 3565.62 2773.72 3522.33C2788.46 3497.19 2790.85 3470.43 2783.79 3445.64L3109.81 2889.77C3134.08 2885.23 3156.26 2870.08 3171.01 2844.94C3185.75 2819.81 3188.14 2793.05 3180.26 2769.65L3504.65 2216.58C3529.74 2210.64 3551.92 2195.5 3566.66 2170.35C3592.06 2127.06 3582.44 2072.61 3542.86 2049.4C3535.44 2045.04 3525.14 2042.76 3517.32 2041.93L3239.56 1486.7C3244.81 1452.24 3232.78 1418.9 3204.34 1402.21C3201.87 1400.77 3198.57 1400.71 3196.1 1399.26L2933.65 871.781C2949.58 830.446 2937.52 785.823 2902.89 765.512C2869.5 745.926 2825.49 755.776 2796.77 787.741L2187.71 817.21C2181.93 810.063 2176.57 805.039 2167.91 799.961C2134.52 780.376 2090.51 790.226 2063.02 822.917L1490.59 849.465C1484.81 842.319 1477.79 834.451 1469.13 829.373C1429.56 806.162 1377.34 824.337 1351.94 867.635C1337.2 892.773 1334.8 919.528 1341.45 942.201L1014.6 1499.47C991.579 1504.73 968.576 1521.28 954.652 1545.02C940.728 1568.76 937.515 1596.91 944.163 1619.58L616.496 2178.25C594.703 2184.23 573.757 2200.11 560.65 2222.46C534.438 2267.15 546.112 2320.93 584.455 2343.41C591.875 2347.77 598.875 2350 606.697 2350.83L865.399 2864.85C850.285 2904.79 863.166 2948.02 896.559 2967.6C903.979 2971.95 912.219 2974.91 921.279 2976.47L1193.65 3521.03C1178.54 3560.97 1190.6 3605.59 1225.23 3625.9C1258.63 3645.48 1302.65 3635.62 1329.31 3604.34ZM1574.9 966.481L2058.43 944.117L1924.91 1171.77L1574.9 966.481ZM1962.01 1193.53L2095.54 965.88C2101.3 967.383 2107.89 967.489 2114.47 967.602L2195.77 1330.63L1962.01 1193.53ZM2250.19 1362.55L2158.07 955.624C2164.64 950.093 2172.45 945.284 2177.78 939.025L2793.41 909.672C2797.96 916.088 2804.14 919.717 2810.33 923.344C2816.51 926.97 2821.46 929.87 2827.22 931.376L3083.87 1446.07C3076.92 1460.76 3072.44 1476.9 3072.48 1493.83L2679.36 1614.27L2250.19 1362.55ZM2722.65 1639.66L3081.64 1529.23C3087.44 1542.01 3097.35 1553.46 3110.95 1561.44C3112.19 1562.16 3115.48 1562.22 3116.72 1562.94L3055.35 1834.79L2722.65 1639.66ZM3094.93 1858.01L3155.48 1587.55L3370.74 2019.77L3094.93 1858.01ZM1915.79 3454.64L1907.15 3455.2L1243.51 2818.18L1748.91 2667.85L1917.84 3453.96L1915.79 3454.64ZM1593.74 1946.13L1504.1 1974.27L1573.73 1855.56L1593.74 1946.13ZM1646.51 1975.2L2295.81 1772.25L2442.11 2415.56L1783.73 2611.32L1646.51 1975.2ZM1602.92 1987.18L1740.14 2623.29L1204.72 2782.29L1092.87 2675.4L1472.15 2028.74L1602.92 1987.18ZM2665.54 3406.33C2659.79 3410.46 2654.04 3414.59 2648.71 3420.86L2006.73 3449.78L2004.26 3448.33C1990.65 3440.35 1975.83 3437.29 1961.84 3438.47L1792.5 2655.88L2450.88 2460.13L2665.54 3406.33ZM2703.29 3364.65L2495.29 2446.75L2948.06 2312.47L2716.4 3342.29L2703.29 3364.65ZM3080.93 2720.78C3060.37 2727.49 3042.3 2741.29 3030.01 2762.25C3017.72 2783.21 3014.5 2805.71 3018.67 2826.93L2789.3 3218L2995.76 2299.16L3398.76 2178.88L3080.93 2720.78ZM3410.47 2099.4L3417.09 2110.78C3415.39 2116.12 3413.89 2121.51 3412.61 2126.93L3007.54 2247.89L3083.95 1907.89L3410.47 2099.4ZM3044.38 1884.68L2959.84 2261.2L2485.28 2401.46L2340.22 1758.88L2659.73 1659.07L3044.38 1884.68ZM2616.44 1633.69L2330.65 1721.35L2265.19 1427.67L2616.44 1633.69ZM2210.77 1395.75L2287.47 1735.44L1637.33 1934.16L1608.13 1796.9L1937.44 1235.44L2210.77 1395.75ZM1441.21 993.196C1453.54 989.168 1464.22 982.292 1475.31 971.898L1486 970.666L1900.33 1213.68L1594.78 1734.63L1437.11 1000.18L1441.21 993.196ZM1043.91 1670.58C1063.23 1663.14 1083.35 1648.67 1095.64 1627.71C1107.94 1606.76 1110.74 1582.13 1107.81 1561.63L1402.71 1058.83L1560.38 1793.28L1443.24 1993.01L725.258 2213.88L1043.91 1670.58ZM731.344 2328.2L709.821 2285.55C712.678 2277.84 713.483 2270.8 714.287 2263.76L1411.29 2047.49L1061.5 2643.87L731.344 2328.2ZM794.681 2455.45L1036.11 2687.16L968.94 2801.68L794.681 2455.45ZM1006.05 2823.44L1068.3 2717.3L1152.08 2798.34L1015.55 2838.4C1013.48 2833.44 1010.18 2827.75 1006.05 2823.44ZM1299.67 3459.31L1022.75 2908.33C1024.37 2899.89 1026 2891.46 1026.39 2882.3L1190.88 2834.24L1842.13 3458.36L1335.95 3482.46C1330.59 3477.44 1326.04 3471.02 1318.62 3466.67C1312.44 3463.05 1306.67 3461.54 1299.67 3459.31Z" fill="white" fill-opacity="0.06"/>
</g>
<defs>
<clipPath id="clip0_821_79">
<rect width="3481.86" height="2740.74" fill="white" transform="translate(4125.65 1386.59) rotate(120.392)"/>
</clipPath>
</defs>
</svg>
