<svg width="1440" height="3671" viewBox="0 0 1440 3671" fill="none" xmlns="http://www.w3.org/2000/svg">
<g clip-path="url(#clip0_771_416)">
<path d="M-674.442 2395.05L-244.579 2745.36C-247.254 2758.26 -247.953 2772.03 -243.587 2785.69C-230.488 2826.66 -181.018 2848.48 -134.311 2835.06L341.248 3221.94C340.781 3231.12 340.32 3240.3 342.939 3248.49C356.909 3292.2 407.923 3313.52 455.736 3298.24C483.495 3289.37 503.137 3271.04 514.43 3247.86L1128.25 3051.64C1149.35 3064.46 1175.98 3067.99 1203.74 3059.11C1231.49 3050.24 1251.14 3031.92 1260.89 3009.23L1871.63 2813.99C1894.27 2826.32 1920.89 2829.86 1948.66 2820.98C1996.46 2805.7 2025.65 2758.74 2011.68 2715.03C2009.06 2706.83 2002.92 2698.26 1997.65 2692.42L2161.51 2093.6C2188.42 2071.46 2201.72 2038.6 2191.68 2007.18C2190.8 2004.46 2188.39 2002.22 2187.51 1999.48L2344.24 1431.55C2383.7 1411.41 2404.5 1370.14 2392.28 1331.89C2380.49 1295.02 2341.15 1272.97 2298.43 1277.6L1825.28 892.953C1825.75 883.773 1825.11 876.452 1822.05 866.892C1810.27 830.017 1770.92 807.971 1728.64 813.963L1284.71 451.593C1285.18 442.413 1285.2 431.868 1282.15 422.308C1268.18 378.606 1217.16 357.277 1169.35 372.562C1141.59 381.436 1121.95 399.759 1111.76 421.077L496.392 617.797C475.735 606.344 447.564 603.306 421.349 611.687C395.133 620.067 373.948 638.883 363.762 660.202L-253.151 857.415C-273.373 847.323 -299.564 845.159 -324.242 853.048C-373.592 868.824 -400.802 916.659 -387.266 958.999C-384.647 967.193 -380.927 973.529 -375.658 979.369L-526.187 1534.79C-564.102 1554.43 -583.367 1595.21 -571.579 1632.09C-568.96 1640.28 -564.798 1647.98 -559.092 1655.19L-719.83 2242.47C-757.745 2262.12 -778.553 2303.4 -766.329 2341.64C-754.529 2378.51 -715.179 2400.55 -674.442 2395.05ZM1269.36 594.996L1644.31 901.138L1392.92 981.501L1269.36 594.996ZM1406.02 1022.48L1657.41 942.112C1660.69 947.08 1665.53 951.554 1670.35 956.035L1488.53 1280.6L1406.02 1022.48ZM1507.75 1340.7L1710.81 976.22C1719.39 976.488 1728.42 978.121 1736.56 977.018L2214.53 1366.14C2213.63 1373.95 2215.81 1380.79 2218 1387.61C2220.18 1394.44 2221.93 1399.9 2225.22 1404.88L2072.71 1959.42C2057.72 1965.72 2043.61 1974.74 2032.35 1987.38L1659.24 1814.61L1507.75 1340.7ZM1674.53 1862.42L2015.53 2019.84C2011.32 2033.24 2011.05 2048.37 2015.85 2063.39C2016.29 2064.76 2018.71 2067 2019.14 2068.36L1791.97 2229.8L1674.53 1862.42ZM1805.95 2273.51L2031.57 2112.56L1903.31 2578.07L1805.95 2273.51ZM-137.845 2675.11L-144.657 2669.77L-213.51 1752.45L263.139 1977.91L-135.865 2675.99L-137.845 2675.11ZM629.409 1336.98L543.879 1298.08L674.974 1256.17L629.409 1336.98ZM649.289 1393.84L1268.21 1676.18L947.685 2252.83L326.809 1959.07L649.289 1393.84ZM608.839 1373.66L286.358 1938.88L-218.432 1699.83L-230.35 1545.59L483.733 1317.31L608.839 1373.66ZM452.633 3139.66C445.593 3138.9 438.552 3138.14 430.4 3139.24L-66.8929 2732.21L-67.7665 2729.48C-72.5684 2714.46 -81.5573 2702.28 -92.7657 2693.82L303.589 1998.1L924.46 2291.86L452.633 3139.66ZM508.563 3133.82L966.459 2311.55L1393.2 2513.83L533.246 3125.93L508.563 3133.82ZM1219.56 2906.53C1199.77 2897.81 1177.11 2896.02 1153.97 2903.42C1130.82 2910.82 1113.4 2925.42 1102.34 2944.01L670.502 3082.06L1437.61 2535.77L1817.96 2715.24L1219.56 2906.53ZM1879.73 2663.88L1877.06 2676.77C1872.23 2679.61 1867.52 2682.63 1862.94 2685.8L1480.61 2505.45L1764.47 2303.32L1879.73 2663.88ZM1750.5 2259.62L1436.21 2483.52L989.241 2271.15L1310.2 1695.88L1614.72 1834.86L1750.5 2259.62ZM1599.44 1787.07L1328.13 1661.55L1475.44 1399.19L1599.44 1787.07ZM1456.23 1339.1L1286.57 1643.22L669.857 1357.16L739.749 1235.47L1359.74 1037.27L1456.23 1339.1ZM1151.99 525.639C1163.86 530.874 1176.4 532.884 1191.6 532.546L1200.38 538.768L1346.64 996.294L771.378 1180.19L1144.28 528.103L1151.99 525.639ZM403.983 764.76C423.337 772.117 447.979 774.776 471.12 767.379C494.261 759.981 512.785 743.522 524.288 726.301L1079.51 548.809L706.608 1200.9L486.059 1271.4L-195.955 956.547L403.983 764.76ZM-267.747 1045.73L-255.294 999.603C-248.021 995.772 -242.726 991.072 -237.428 986.366L425.903 1290.64L-232.656 1501.17L-267.747 1045.73ZM-305.533 1182.75L-280.46 1516.44L-406.925 1556.87L-305.533 1182.75ZM-393.826 1597.84L-276.614 1560.37L-268.339 1676.65L-396.734 1615.33C-394.962 1610.25 -393.622 1603.8 -393.826 1597.84ZM-599.694 2267.29L-438.052 1672.19C-431.215 1667 -424.373 1661.8 -417.972 1655.24L-263.416 1729.27L-195.174 2628.71L-588.134 2308.75C-588.78 2301.43 -587.876 2293.62 -590.495 2285.43C-592.678 2278.6 -595.968 2273.63 -599.694 2267.29Z" fill="white" fill-opacity="0.06"/>
</g>
<defs>
<clipPath id="clip0_771_416">
<rect width="3481.86" height="2740.74" fill="white" transform="translate(2888.07 2610.59) rotate(162.272)"/>
</clipPath>
</defs>
</svg>
