<svg width="30" height="30" viewBox="0 0 30 30" fill="none" xmlns="http://www.w3.org/2000/svg">
<g clip-path="url(#clip0_771_270)">
<path d="M14.8299 0.462891C6.88986 0.462891 0.462891 6.88859 0.462891 14.8299C0.462891 22.7699 6.88859 29.1969 14.8299 29.1969C17.6195 29.1969 20.3532 28.3777 22.6743 26.8667C23.3697 26.414 23.5215 25.4597 22.9959 24.8176L22.4063 24.0973C21.9619 23.5544 21.1794 23.4214 20.5888 23.8002C18.8804 24.8959 16.8757 25.4893 14.8299 25.4893C8.95228 25.4893 4.1705 20.7075 4.1705 14.8299C4.1705 8.95228 8.95228 4.1705 14.8299 4.1705C20.6311 4.1705 25.4893 7.50845 25.4893 13.4395C25.4893 15.6865 24.2673 18.0591 22.1194 18.288C21.1143 18.2617 21.1398 17.5432 21.3387 16.5487L22.6962 9.53258C22.8622 8.67467 22.205 7.87811 21.3312 7.87811H18.7254C18.533 7.87811 18.3474 7.94893 18.2038 8.07708C18.0603 8.20522 17.969 8.38171 17.9473 8.57288L17.9467 8.57821C17.0953 7.54118 15.6035 7.31676 14.4725 7.31676C10.152 7.31676 6.48776 10.9221 6.48776 16.0911C6.48776 19.8741 8.61877 22.2243 12.0492 22.2243C13.6124 22.2243 15.3726 21.3184 16.3935 20.0036C16.9451 21.9793 18.7463 21.9792 20.4898 21.9792C26.799 21.9792 29.1969 17.8306 29.1969 13.4395C29.1969 5.54075 22.8258 0.462891 14.8299 0.462891ZM13.5739 18.099C12.285 18.099 11.4843 17.1939 11.4843 15.737C11.4843 13.1305 13.2674 11.5237 14.8809 11.5237C16.1723 11.5237 16.9433 12.4067 16.9433 13.8856C16.9433 16.496 14.9809 18.099 13.5739 18.099Z" fill="#FFEFFE"/>
</g>
<defs>
<clipPath id="clip0_771_270">
<rect width="29.6609" height="29.6609" fill="white"/>
</clipPath>
</defs>
</svg>
