<svg width="23" height="30" viewBox="0 0 23 30" fill="none" xmlns="http://www.w3.org/2000/svg">
<g clip-path="url(#clip0_771_268)">
<path d="M9.97973 29.0625C1.56241 16.8598 0 15.6075 0 11.1228C0 4.97984 4.97984 0 11.1228 0C17.2658 0 22.2457 4.97984 22.2457 11.1228C22.2457 15.6075 20.6833 16.8598 12.2659 29.0625C11.7136 29.8604 10.532 29.8603 9.97973 29.0625ZM11.1228 15.7573C13.6824 15.7573 15.7573 13.6824 15.7573 11.1228C15.7573 8.56325 13.6824 6.48832 11.1228 6.48832C8.56325 6.48832 6.48832 8.56325 6.48832 11.1228C6.48832 13.6824 8.56325 15.7573 11.1228 15.7573Z" fill="white"/>
</g>
<defs>
<clipPath id="clip0_771_268">
<rect width="22.2457" height="29.6609" fill="white"/>
</clipPath>
</defs>
</svg>
