<svg width="30" height="30" viewBox="0 0 30 30" fill="none" xmlns="http://www.w3.org/2000/svg">
<g clip-path="url(#clip0_771_272)">
<path d="M28.8145 20.9591L22.3262 18.1784C22.049 18.0602 21.741 18.0353 21.4484 18.1074C21.1559 18.1795 20.8947 18.3447 20.7041 18.5781L17.8307 22.0887C13.3212 19.9625 9.69205 16.3334 7.56584 11.8239L11.0765 8.95046C11.3103 8.76026 11.4759 8.49904 11.548 8.20636C11.6201 7.91368 11.5949 7.60546 11.4762 7.32838L8.69551 0.84006C8.56523 0.54137 8.33481 0.2975 8.04398 0.150501C7.75316 0.00350204 7.42015 -0.0374124 7.10239 0.0348129L1.07752 1.42517C0.771165 1.49591 0.497831 1.66841 0.302133 1.9145C0.106435 2.1606 -7.05726e-05 2.46576 3.50845e-08 2.78018C3.50845e-08 17.6396 12.0439 29.6604 26.8802 29.6604C27.1947 29.6606 27.5 29.5541 27.7462 29.3584C27.9924 29.1627 28.165 28.8893 28.2358 28.5828L29.6261 22.558C29.6979 22.2387 29.6561 21.9043 29.508 21.6125C29.3598 21.3207 29.1146 21.0896 28.8145 20.9591Z" fill="white"/>
</g>
<defs>
<clipPath id="clip0_771_272">
<rect width="29.6609" height="29.6609" fill="white"/>
</clipPath>
</defs>
</svg>
