<svg width="26" height="30" viewBox="0 0 26 30" fill="none" xmlns="http://www.w3.org/2000/svg">
<g clip-path="url(#clip0_771_274)">
<path d="M20.3919 18.5381C19.0821 18.5381 17.8784 18.991 16.9281 19.7485L10.991 16.0378C11.1668 15.2425 11.1668 14.4184 10.991 13.623L16.9281 9.9123C17.8784 10.6699 19.0821 11.1228 20.3919 11.1228C23.4633 11.1228 25.9533 8.63288 25.9533 5.56142C25.9533 2.48995 23.4633 0 20.3919 0C17.3204 0 14.8304 2.48995 14.8304 5.56142C14.8304 5.97609 14.8762 6.37999 14.9623 6.76877L9.02514 10.4795C8.07489 9.72199 6.87113 9.26903 5.56142 9.26903C2.48995 9.26903 0 11.759 0 14.8304C0 17.9019 2.48995 20.3919 5.56142 20.3919C6.87113 20.3919 8.07489 19.9389 9.02514 19.1814L14.9623 22.8921C14.8745 23.2886 14.8303 23.6934 14.8304 24.0995C14.8304 27.1709 17.3204 29.6609 20.3919 29.6609C23.4633 29.6609 25.9533 27.1709 25.9533 24.0995C25.9533 21.028 23.4633 18.5381 20.3919 18.5381Z" fill="white"/>
</g>
<defs>
<clipPath id="clip0_771_274">
<rect width="25.9533" height="29.6609" fill="white"/>
</clipPath>
</defs>
</svg>
