<svg width="32" height="29" viewBox="0 0 32 29" fill="none" xmlns="http://www.w3.org/2000/svg">
<path d="M30.2776 6.53954C30.4832 5.8451 30.2776 5.33398 29.2888 5.33398H26.0165C25.1832 5.33398 24.7999 5.77287 24.5943 6.26176C24.5943 6.26176 22.9276 10.3229 20.5721 12.9562C19.811 13.7173 19.461 13.9618 19.0443 13.9618C18.8388 13.9618 18.5221 13.7173 18.5221 13.0229V6.53954C18.5221 5.70621 18.2888 5.33398 17.5999 5.33398H12.4554C11.9332 5.33398 11.6221 5.72287 11.6221 6.08398C11.6221 6.87287 12.7999 7.05621 12.9221 9.27843V14.1006C12.9221 15.1562 12.7332 15.3506 12.3165 15.3506C11.2054 15.3506 8.50542 11.2729 6.90543 6.60621C6.5832 5.70065 6.26654 5.33398 5.42765 5.33398H2.15543C1.22209 5.33398 1.0332 5.77287 1.0332 6.26176C1.0332 7.12843 2.14431 11.434 6.20542 17.1229C8.91098 21.0062 12.7221 23.1118 16.1888 23.1118C18.2721 23.1118 18.5276 22.6451 18.5276 21.8395C18.5276 18.1284 18.3388 17.7784 19.3832 17.7784C19.8665 17.7784 20.6999 18.0229 22.6443 19.8951C24.8665 22.1173 25.2332 23.1118 26.4776 23.1118H29.7499C30.6832 23.1118 31.1554 22.6451 30.8832 21.7229C30.261 19.784 26.0554 15.7951 25.8665 15.5284C25.3832 14.9062 25.5221 14.6284 25.8665 14.0729C25.8721 14.0673 29.8665 8.44509 30.2776 6.53954Z" fill="white"/>
</svg>
