<svg width="24" height="28" viewBox="0 0 24 28" fill="none" xmlns="http://www.w3.org/2000/svg">
<path d="M10.0071 10.8273L15.1071 13.7256L10.0071 16.6238V10.8273ZM24 4.28627V23.1434C24 24.5631 22.8482 25.7148 21.4286 25.7148H2.57143C1.15179 25.7148 0 24.5631 0 23.1434V4.28627C0 2.86663 1.15179 1.71484 2.57143 1.71484H21.4286C22.8482 1.71484 24 2.86663 24 4.28627ZM21.75 13.7309C21.75 13.7309 21.75 10.5381 21.3429 9.00592C21.1179 8.15949 20.4589 7.4952 19.6179 7.2702C18.1018 6.8577 12 6.8577 12 6.8577C12 6.8577 5.89821 6.8577 4.38214 7.2702C3.54107 7.4952 2.88214 8.15949 2.65714 9.00592C2.25 10.5327 2.25 13.7309 2.25 13.7309C2.25 13.7309 2.25 16.9238 2.65714 18.4559C2.88214 19.3023 3.54107 19.9398 4.38214 20.1648C5.89821 20.572 12 20.572 12 20.572C12 20.572 18.1018 20.572 19.6179 20.1595C20.4589 19.9345 21.1179 19.297 21.3429 18.4506C21.75 16.9238 21.75 13.7309 21.75 13.7309Z" fill="white"/>
</svg>
